<?xml version="1.0" encoding="utf-8"?>
<svg id="master-artboard" xmlns="http://www.w3.org/2000/svg" viewBox="0 0 500 500" width="500px" height="500px"><defs><style id="ee-google-fonts">@import url(https://fonts.googleapis.com/css?family=Archivo+Black:400);</style><path id="text-path-0" d="M 131.09580993652344 145.67491149902344 A 100 7 0 0 1 431.6392822265625 145.67491149902344 A 100 7 0 0 1 131.09580993652344 145.67491149902344" style="fill: none; stroke: red; stroke-width: 2;"/></defs><rect id="ee-background" x="0" y="0" width="500" height="500" style="fill: rgb(255, 255, 255); fill-opacity: 0; pointer-events: none;"/><path style="fill: rgb(83, 109, 254); fill-opacity: 1; stroke: rgb(0, 0, 0); stroke-opacity: 1; stroke-width: 0; paint-order: stroke;" d="M 0.408116549253464 336.59893798828125 L 507.0537414550781 181.02127075195312 L 507.8682861328125 -12.025362968444824 L -13.43911075592041 -9.581734657287598 L 0.408116549253464 336.59893798828125 Z" transform="matrix(1, 0, 0, 0.7359812533937059, 0, -3.1749212584145465)"/><path d="M 131.53201293945312 101.0483627319336 L 136.07546997070312 142.0775604248047 L 153.83689880371094 140.11070251464844 C 157.3355255126953 139.72328186035156 160.37745666503906 138.9672088623047 162.9626922607422 137.84249877929688 C 165.54867553710938 136.7244110107422 167.65589904785156 135.2200164794922 169.28436279296875 133.32928466796875 C 170.91282653808594 131.43856811523438 172.05184936523438 129.156005859375 172.70143127441406 126.4815902709961 C 173.34439086914062 123.80790710449219 173.471435546875 120.71513366699219 173.08253479003906 117.2032699584961 C 172.6951141357422 113.70465850830078 171.8952178955078 110.72123718261719 170.68284606933594 108.25301361083984 C 169.4638671875 105.7855224609375 167.85302734375 103.80746459960938 165.850341796875 102.31884765625 C 163.84767150878906 100.83023071289062 161.4623565673828 99.82331848144531 158.69439697265625 99.29811096191406 C 155.9257049560547 98.76628112792969 152.79205322265625 98.69408416748047 149.29344177246094 99.08151245117188 L 131.53201293945312 101.0483627319336 M 150.15447998046875 108.9466781616211 C 151.59234619140625 108.7874526977539 152.8567657470703 108.8486557006836 153.94772338867188 109.13028717041016 C 155.0386962890625 109.41192626953125 155.9613494873047 109.9000015258789 156.71571350097656 110.59452819824219 C 157.47006225585938 111.28905487060547 158.07012939453125 112.16499328613281 158.515869140625 113.22235870361328 C 158.9557342529297 114.28707885742188 159.25308227539062 115.51850128173828 159.40789794921875 116.9166259765625 L 159.80413818359375 120.4947509765625 C 159.95895385742188 121.89287567138672 159.93824768066406 123.15951538085938 159.7419891357422 124.294677734375 C 159.53839111328125 125.4239501953125 159.14451599121094 126.40995788574219 158.56039428710938 127.25270080566406 C 157.97625732421875 128.09544372558594 157.18275451660156 128.77357482910156 156.17984008789062 129.28707885742188 C 155.1769256591797 129.8005828857422 153.95654296875 130.13694763183594 152.51866149902344 130.29617309570312 L 148.15533447265625 130.77935791015625 L 145.79115295410156 109.42986297607422 L 150.15447998046875 108.9466781616211 ZM 195.41880798339844 104.60868072509766 C 192.72854614257812 104.737548828125 190.3009490966797 105.19422149658203 188.13601684570312 105.97870635986328 C 185.97804260253906 106.76952362060547 184.15614318847656 107.88797760009766 182.6702880859375 109.33406066894531 C 181.1847686767578 110.78679656982422 180.07191467285156 112.56541442871094 179.33175659179688 114.6698989868164 C 178.5919189453125 116.78105163574219 178.28836059570312 119.2217025756836 178.42105102539062 121.99185943603516 C 178.55374145507812 124.76201629638672 179.08935546875 127.16580963134766 180.02792358398438 129.2032470703125 C 180.9664764404297 131.24066162109375 182.2445526123047 132.91143798828125 183.86212158203125 134.2155303955078 C 185.47938537597656 135.51296997070312 187.3998565673828 136.45216369628906 189.62353515625 137.03309631347656 C 191.85354614257812 137.6070556640625 194.31369018554688 137.82960510253906 197.00393676757812 137.70074462890625 C 199.69418334960938 137.57188415527344 202.12510681152344 137.11505126953125 204.2967071533203 136.3302459716797 C 206.46800231933594 135.53878784179688 208.2965545654297 134.42001342773438 209.78240966796875 132.97393798828125 C 211.2679443359375 131.5211944580078 212.38711547851562 129.735595703125 213.13995361328125 127.61714935302734 C 213.88613891601562 125.4990234375 214.19287109375 123.05488586425781 214.0601806640625 120.28472900390625 C 213.927490234375 117.51457214355469 213.38870239257812 115.11426544189453 212.4438018798828 113.08381652832031 C 211.4925537109375 111.06034851074219 210.20816040039062 109.39656066894531 208.590576171875 108.09246063232422 C 206.9733123779297 106.7950210571289 205.04617309570312 105.85614776611328 202.80918884277344 105.27584838867188 C 200.572509765625 104.70220947265625 198.1090545654297 104.47982025146484 195.41880798339844 104.60868072509766 M 195.80682373046875 112.70939636230469 C 196.8589630126953 112.65899658203125 197.7654266357422 112.77242279052734 198.52622985839844 113.04967498779297 C 199.28036499023438 113.32723999023438 199.91453552246094 113.74738311767578 200.4287109375 114.31008911132812 C 200.94288635253906 114.872802734375 201.3329620361328 115.56159210205078 201.5989227294922 116.37646484375 C 201.86520385742188 117.19800567626953 202.02352905273438 118.13483428955078 202.0739288330078 119.18695831298828 L 202.238037109375 122.61302947998047 C 202.33787536621094 124.69731140136719 201.94688415527344 126.35791778564453 201.0650634765625 127.59485626220703 C 200.1898956298828 128.83148193359375 198.7068328857422 129.4998779296875 196.61590576171875 129.60003662109375 C 195.56378173828125 129.65042114257812 194.66079711914062 129.54017639160156 193.906982421875 129.26925659179688 C 193.1468048095703 129.0053253173828 192.51979064941406 128.59486389160156 192.02590942382812 128.03785705566406 C 191.53233337402344 127.48750305175781 191.15257263183594 126.80489349365234 190.88661193847656 125.99002075195312 C 190.62033081054688 125.1684799194336 190.46200561523438 124.23165130615234 190.41160583496094 123.17952728271484 L 190.24749755859375 119.75345611572266 C 190.1970977783203 118.70132446289062 190.26516723632812 117.75365447998047 190.4517059326172 116.91043090820312 C 190.6385498046875 116.07386016845703 190.95101928710938 115.3514175415039 191.38906860351562 114.74309539794922 C 191.82713317871094 114.13477325439453 192.4115753173828 113.65626525878906 193.14239501953125 113.30756378173828 C 193.86656188964844 112.95918273925781 194.75469970703125 112.75979614257812 195.80682373046875 112.70939636230469 ZM 261.4940490722656 102.78306579589844 C 260.4208679199219 102.80132293701172 259.3699035644531 102.94922637939453 258.34112548828125 103.22676849365234 C 257.3124694824219 103.51097106933594 256.33221435546875 103.89437103271484 255.4002685546875 104.37696075439453 C 254.46835327148438 104.85955047607422 253.60488891601562 105.4476547241211 252.80990600585938 106.14128112792969 C 252.00814819335938 106.82835388183594 251.3109588623047 107.58699035644531 250.71832275390625 108.41719055175781 C 249.90884399414062 106.69071197509766 248.70281982421875 105.36770629882812 247.10028076171875 104.44816589355469 C 245.49107360839844 103.52873992919922 243.46664428710938 103.08978271484375 241.02700805664062 103.13128662109375 C 239.92715454101562 103.1500015258789 238.84947204589844 103.2950210571289 237.79393005371094 103.56635284423828 C 236.7317352294922 103.83779907226562 235.72799682617188 104.21492767333984 234.78274536132812 104.69773864746094 C 233.8309326171875 105.18733978271484 232.9541473388672 105.77567291259766 232.1523895263672 106.4627456665039 C 231.3572998046875 107.14970397949219 230.66360473632812 107.91828155517578 230.07131958007812 108.76847839355469 L 229.2311248779297 104.06208801269531 L 219.4425506591797 104.22863006591797 L 219.98129272460938 135.89404296875 L 231.90957641601562 135.69110107421875 L 231.59315490722656 117.09379577636719 C 231.58181762695312 116.4272232055664 231.68096923828125 115.78878021240234 231.890625 115.17845916748047 C 232.10693359375 114.56802368164062 232.41787719726562 114.03265380859375 232.8234405517578 113.57235717773438 C 233.2222137451172 113.10550689697266 233.71263122558594 112.73377227783203 234.294677734375 112.45716857910156 C 234.8768310546875 112.18722534179688 235.52786254882812 112.04612731933594 236.2477569580078 112.03388214111328 C 237.4809112548828 112.01290130615234 238.42791748046875 112.4168472290039 239.0887908935547 113.2457275390625 C 239.74298095703125 114.07471466064453 240.08135986328125 115.15245056152344 240.1039276123047 116.47892761230469 L 240.4283447265625 135.54617309570312 L 252.38661193847656 135.34271240234375 L 252.0701904296875 116.74539947509766 C 252.05885314941406 116.07882690429688 252.1580047607422 115.44038391113281 252.36766052246094 114.83006286621094 C 252.58396911621094 114.2196273803711 252.89157104492188 113.68431854248047 253.29046630859375 113.22412872314453 C 253.6959228515625 112.75716400146484 254.18966674804688 112.38538360595703 254.77171325683594 112.10877227783203 C 255.35386657714844 111.83882904052734 256.0048828125 111.69773864746094 256.72479248046875 111.68548583984375 C 257.95794677734375 111.66450500488281 258.901611328125 112.06851196289062 259.5558166503906 112.89749908447266 C 260.2166748046875 113.72637939453125 260.55841064453125 114.8040542602539 260.5809631347656 116.13053131103516 L 260.9053649902344 135.19776916503906 L 272.8336486816406 134.9948272705078 L 272.4847412109375 114.48779296875 C 272.452880859375 112.61473083496094 272.2044372558594 110.94538116455078 271.73944091796875 109.47974395751953 C 271.2744445800781 108.01410675048828 270.586669921875 106.77896881103516 269.6761169433594 105.77430725097656 C 268.7723388671875 104.77620697021484 267.6359558105469 104.01876068115234 266.2669677734375 103.5019760131836 C 264.9047546386719 102.99173736572266 263.31378173828125 102.75210571289062 261.4940490722656 102.78306579589844 ZM 294.2784729003906 102.79418182373047 C 291.565185546875 102.77771759033203 289.173828125 102.99654388427734 287.1043701171875 103.4506607055664 C 285.04156494140625 103.90481567382812 283.3109130859375 104.55765533447266 281.9123840332031 105.40918731689453 C 280.5072021484375 106.26067352294922 279.4509582519531 107.28428649902344 278.7436828613281 108.48001098632812 C 278.036376953125 109.68241119384766 277.67828369140625 111.01359558105469 277.66943359375 112.47356414794922 C 277.66845703125 112.6335678100586 277.6676025390625 112.77689361572266 277.6668395996094 112.90355682373047 C 277.6660461425781 113.03022766113281 277.681884765625 113.17032623291016 277.7142639160156 113.3238525390625 L 289.4940490722656 113.39533996582031 L 289.4956359863281 113.13534545898438 C 289.49884033203125 112.60868835449219 289.6381530761719 112.1695327758789 289.91363525390625 111.81786346435547 C 290.1891174316406 111.46619415283203 290.5474853515625 111.18502807617188 290.98876953125 110.97437286376953 C 291.4300537109375 110.76371002197266 291.92095947265625 110.61668395996094 292.46148681640625 110.5333023071289 C 292.995361328125 110.44320678710938 293.525634765625 110.3997573852539 294.05230712890625 110.40294647216797 C 294.6989440917969 110.40687561035156 295.30511474609375 110.49055480957031 295.8708190917969 110.65399169921875 C 296.4365539550781 110.81076049804688 296.92181396484375 111.04370880126953 297.32659912109375 111.35283660888672 C 297.73809814453125 111.65534210205078 298.0624084472656 112.04731750488281 298.2994689941406 112.52876281738281 C 298.5432434082031 113.01025390625 298.6631774902344 113.57099151611328 298.6592712402344 114.21097564697266 L 298.6498107910156 115.77095031738281 C 295.196533203125 115.74999237060547 292.10906982421875 115.87126159667969 289.3874206542969 116.13475036621094 C 286.67242431640625 116.40494537353516 284.3757629394531 116.94435119628906 282.49749755859375 117.75296783447266 C 280.61920166015625 118.56158447265625 279.1822814941406 119.69954681396484 278.1866760253906 121.1668701171875 C 277.19110107421875 122.63418579101562 276.6861267089844 124.55115509033203 276.6717529296875 126.91777801513672 C 276.66168212890625 128.57774353027344 276.9265441894531 129.97604370117188 277.46630859375 131.11268615722656 C 278.0061340332031 132.24264526367188 278.76055908203125 133.16390991210938 279.7295837402344 133.87646484375 C 280.705322265625 134.5823974609375 281.87890625 135.09286499023438 283.2503662109375 135.40785217285156 C 284.6285095214844 135.7162322998047 286.1375732421875 135.87538146972656 287.7775573730469 135.88534545898438 C 289.1641845703125 135.8937530517578 290.4281311035156 135.7947540283203 291.5694274902344 135.58834838867188 C 292.71734619140625 135.38197326660156 293.76910400390625 135.0950164794922 294.7247009277344 134.72747802734375 C 295.68695068359375 134.3599853515625 296.55950927734375 133.9419403076172 297.34234619140625 133.4733428955078 C 298.125244140625 132.99807739257812 298.85162353515625 132.4991455078125 299.521484375 131.97653198242188 C 300.0608215332031 133.18649291992188 301.054931640625 134.15921020507812 302.5038146972656 134.89468383789062 C 303.9527587890625 135.6234893798828 305.8905334472656 135.99526977539062 308.3171691894531 136.00999450683594 C 309.31048583984375 136.01602172851562 310.1974792480469 135.96473693847656 310.9781494140625 135.85614013671875 C 311.75885009765625 135.74087524414062 312.4163513183594 135.60818481445312 312.9505920410156 135.45809936523438 C 313.5716857910156 135.2818603515625 314.1095886230469 135.07846069335938 314.5643310546875 134.84788513183594 L 314.60626220703125 127.93800354003906 L 312.4363098144531 127.92483520507812 C 311.7696533203125 127.92079162597656 311.2877197265625 127.69120025634766 310.9904479980469 127.23605346679688 C 310.6865234375 126.78752899169922 310.53656005859375 126.22994232177734 310.5406188964844 125.56329345703125 L 310.6156005859375 113.2035140991211 C 310.6274719238281 111.2502212524414 310.1940612792969 109.61089324951172 309.3154296875 108.28553771972656 C 308.436767578125 106.96685028076172 307.2431945800781 105.89958190917969 305.73480224609375 105.08374786376953 C 304.2263488769531 104.27458190917969 302.4798278808594 103.6939697265625 300.4952697753906 103.3419189453125 C 298.5173645019531 102.98991394042969 296.4450988769531 102.80732727050781 294.2784729003906 102.79418182373047 M 298.5991516113281 124.12079620361328 C 298.5952453613281 124.76078796386719 298.4316711425781 125.34980010986328 298.1083984375 125.88784790039062 C 297.77850341796875 126.419189453125 297.33905029296875 126.87986755371094 296.7900085449219 127.2698745727539 C 296.2409362792969 127.65988159179688 295.609130859375 127.95938873291016 294.8945007324219 128.16839599609375 C 294.1865539550781 128.37742614746094 293.4492492675781 128.47962951660156 292.6826171875 128.4749755859375 C 292.1759338378906 128.47189331054688 291.6795654296875 128.42555236816406 291.19342041015625 128.3359375 C 290.7073059082031 128.24630737304688 290.27154541015625 128.09365844726562 289.88616943359375 127.87799072265625 C 289.50750732421875 127.65568542480469 289.20269775390625 127.35050201416016 288.9717102050781 126.9624252319336 C 288.74078369140625 126.56768035888672 288.627197265625 126.0569839477539 288.6310119628906 125.43032836914062 C 288.63458251953125 124.84367370605469 288.8244934082031 124.30481719970703 289.2008361816406 123.81375885009766 C 289.5705261230469 123.31598663330078 290.1564636230469 122.88954162597656 290.9586181640625 122.5344009399414 C 291.7674560546875 122.1792984008789 292.802490234375 121.9022445678711 294.063720703125 121.70323181152344 C 295.324951171875 121.50421142578125 296.84222412109375 121.41008758544922 298.61553955078125 121.42084503173828 L 298.5991516113281 124.12079620361328 ZM 334.98516845703125 103.43684387207031 C 332.2927551269531 103.36685943603516 329.83807373046875 103.6431655883789 327.6211242675781 104.2657699584961 C 325.41070556640625 104.89521789550781 323.51123046875 105.87619018554688 321.9227294921875 107.20869445800781 C 320.3340759277344 108.54786682128906 319.0930480957031 110.2395248413086 318.1996154785156 112.2836685180664 C 317.3060302734375 114.33447265625 316.8232116699219 116.7460708618164 316.7511291503906 119.51847076416016 C 316.677001953125 122.37084197998047 317.0427551269531 124.84784698486328 317.8484191894531 126.94949340820312 C 318.6540832519531 129.05113220214844 319.8388671875 130.80584716796875 321.40283203125 132.213623046875 C 322.9667663574219 133.6214141845703 324.88653564453125 134.68165588378906 327.162109375 135.39434814453125 C 329.4443664550781 136.10723876953125 332.0083312988281 136.5006561279297 334.85406494140625 136.5746307373047 C 337.7064208984375 136.64877319335938 340.2095947265625 136.43040466308594 342.3636169433594 135.91954040527344 C 344.5176086425781 135.40866088867188 346.3247375488281 134.64537048339844 347.7849426269531 133.629638671875 C 349.2451477050781 132.61390686035156 350.3514709472656 131.35888671875 351.1038818359375 129.86460876464844 C 351.8563232421875 128.3703155517578 352.2571105957031 126.67682647705078 352.3063049316406 124.78413391113281 L 340.740234375 124.48348999023438 C 340.7236022949219 125.12327575683594 340.6047058105469 125.72039031982422 340.383544921875 126.27482604980469 C 340.1625671386719 126.82260131835938 339.8200378417969 127.30052947998047 339.35595703125 127.70861053466797 C 338.88519287109375 128.11651611328125 338.2735595703125 128.42739868164062 337.5210876464844 128.64125061035156 C 336.7751159667969 128.8619384765625 335.8656311035156 128.95834350585938 334.79266357421875 128.93045043945312 C 332.5267639160156 128.87155151367188 330.91632080078125 128.2261505126953 329.9613342285156 126.99425506591797 C 329.0061950683594 125.7690200805664 328.5570373535156 124.06343841552734 328.61383056640625 121.87751007080078 L 352.3658142089844 122.49490356445312 L 352.4190979003906 120.44559478759766 C 352.49322509765625 117.59323120117188 352.16412353515625 115.11717224121094 351.4317626953125 113.0174331665039 C 350.6927490234375 110.91751861572266 349.5777587890625 109.17129516601562 348.0867614746094 107.77874755859375 C 346.6026306152344 106.37970733642578 344.7593994140625 105.32479095458984 342.55712890625 104.6139907836914 C 340.36151123046875 103.90336608886719 337.8375244140625 103.510986328125 334.98516845703125 103.43684387207031 M 335.25726318359375 111.05648803710938 C 336.9566955566406 111.10066223144531 338.2605285644531 111.61138153076172 339.16876220703125 112.58863830566406 C 340.0838623046875 113.55941009521484 340.51983642578125 114.87451934814453 340.4766845703125 116.5339584350586 L 328.8206481933594 116.2309799194336 C 329.0765075683594 114.59707641601562 329.7100830078125 113.3131103515625 330.72137451171875 112.37906646728516 C 331.7326354980469 111.44503021240234 333.2445983886719 111.00416564941406 335.25726318359375 111.05648803710938 ZM 374.60845947265625 104.97747802734375 C 371.8990478515625 104.83123779296875 369.49993896484375 104.9354248046875 367.4111328125 105.29002380371094 C 365.3289794921875 105.64498901367188 363.5690612792969 106.21430206298828 362.13140869140625 106.99795532226562 C 360.6871032714844 107.78125 359.5830993652344 108.75316619873047 358.8194580078125 109.91368865966797 C 358.0554504394531 111.08087921142578 357.63409423828125 112.3934097290039 357.5553894042969 113.85128784179688 C 357.5467834472656 114.01105499267578 357.5390625 114.15418243408203 357.5322265625 114.2806625366211 C 357.525390625 114.40714263916016 357.53448486328125 114.54783630371094 357.55950927734375 114.70274353027344 L 369.3223876953125 115.33763885498047 L 369.3363952636719 115.07801818847656 C 369.3647766113281 114.55211639404297 369.52496337890625 114.12012481689453 369.81695556640625 113.78203582763672 C 370.1089172363281 113.4439468383789 370.4803466796875 113.18024444580078 370.93121337890625 112.99093627929688 C 371.382080078125 112.80162811279297 371.8794250488281 112.67825317382812 372.4233093261719 112.62081909179688 C 372.9609069824219 112.55636596679688 373.4926452636719 112.538330078125 374.0185546875 112.56671905517578 C 374.6642761230469 112.60157012939453 375.2657470703125 112.71414947509766 375.8229675292969 112.90445709228516 C 376.38055419921875 113.0881118774414 376.8541259765625 113.34400939941406 377.2436828613281 113.6721420288086 C 377.6402282714844 113.99398803710938 377.9454040527344 114.4010238647461 378.1591796875 114.89325714111328 C 378.3796081542969 115.38585662841797 378.47259521484375 115.95169067382812 378.4381103515625 116.59075927734375 L 378.3540344238281 118.14849090576172 C 374.90570068359375 117.96237182617188 371.81597900390625 117.9358139038086 369.0848388671875 118.06880950927734 C 366.3600158691406 118.20881652832031 364.0401916503906 118.63774871826172 362.1253662109375 119.3555908203125 C 360.2105712890625 120.07343292236328 358.7208557128906 121.14136505126953 357.6562194824219 122.55937957763672 C 356.5915832519531 123.9773941040039 355.9954833984375 125.86801147460938 355.867919921875 128.2312469482422 C 355.7784729003906 129.88882446289062 355.9761047363281 131.29820251464844 356.4609069824219 132.4593505859375 C 356.946044921875 133.61383056640625 357.6555480957031 134.57012939453125 358.5893859863281 135.32823181152344 C 359.5302429199219 136.0800323486328 360.6780700683594 136.64605712890625 362.0328674316406 137.0262908935547 C 363.3946838378906 137.4002227783203 364.8944091796875 137.6313934326172 366.53204345703125 137.71978759765625 C 367.91668701171875 137.79452514648438 369.1839294433594 137.75608825683594 370.3337707519531 137.60450744628906 C 371.4902648925781 137.4532928466797 372.5545654296875 137.21697998046875 373.526611328125 136.89556884765625 C 374.5053405761719 136.5745086669922 375.39691162109375 136.1986846923828 376.2012634277344 135.76808166503906 C 377.0060119628906 135.330810546875 377.75543212890625 134.86720275878906 378.4494934082031 134.37722778320312 C 378.9303283691406 135.61160278320312 379.8768005371094 136.63075256347656 381.2888488769531 137.4346923828125 C 382.7012634277344 138.2319793701172 384.6190490722656 138.69601440429688 387.04217529296875 138.82679748535156 C 388.0340576171875 138.88034057617188 388.9224853515625 138.8715362548828 389.7074890136719 138.8004150390625 C 390.4927978515625 138.72262573242188 391.1558837890625 138.62155151367188 391.69671630859375 138.49717712402344 C 392.32550048828125 138.35086059570312 392.8725280761719 138.1734161376953 393.3377685546875 137.96485900878906 L 393.710205078125 131.0648956298828 L 391.5433654785156 130.9479522705078 C 390.8776550292969 130.91201782226562 390.4072570800781 130.6596221923828 390.1321105957031 130.19078063964844 C 389.8499755859375 129.72824096679688 389.72686767578125 129.16412353515625 389.7627868652344 128.49842834472656 L 390.428955078125 116.15638732910156 C 390.5342102050781 114.20589447021484 390.17974853515625 112.5477066040039 389.3655090332031 111.18183898925781 C 388.5509033203125 109.8226318359375 387.4097900390625 108.69949340820312 385.942138671875 107.81243896484375 C 384.47412109375 106.93203735351562 382.75738525390625 106.26854705810547 380.79193115234375 105.82196807861328 C 378.8331298828125 105.37574768066406 376.77197265625 105.09425354003906 374.60845947265625 104.97747802734375 M 377.90399169921875 126.48635864257812 C 377.8695068359375 127.12542724609375 377.6779479980469 127.70594787597656 377.32928466796875 128.22792053222656 C 376.974365234375 128.74285888671875 376.51336669921875 129.18199157714844 375.9462890625 129.5452880859375 C 375.37921142578125 129.90858459472656 374.7337951660156 130.17752075195312 374.0099792480469 130.35211181640625 C 373.2928466796875 130.52703857421875 372.551513671875 130.59385681152344 371.78594970703125 130.5525360107422 C 371.280029296875 130.5252227783203 370.7864074707031 130.45518493652344 370.30511474609375 130.3424072265625 C 369.8238220214844 130.22964477539062 369.3958740234375 130.0563201904297 369.0212707519531 129.8224639892578 C 368.6536865234375 129.58230590820312 368.36383056640625 129.26287841796875 368.15167236328125 128.86419677734375 C 367.93988037109375 128.4588623046875 367.8508605957031 127.94332122802734 367.8846435546875 127.31756591796875 C 367.916259765625 126.73175048828125 368.1317443847656 126.20259857177734 368.5311279296875 125.7301025390625 C 368.9242248535156 125.2505874633789 369.5298767089844 124.85265350341797 370.3481140136719 124.53629302978516 C 371.1730041503906 124.22029113769531 372.2201232910156 123.9930648803711 373.4894104003906 123.85460662841797 C 374.75872802734375 123.71614837646484 376.27874755859375 123.69470977783203 378.0495300292969 123.790283203125 L 377.90399169921875 126.48635864257812 ZM 416.16064453125 108.34298706054688 C 413.4872131347656 108.01622009277344 411.0173645019531 108.05686950683594 408.7511291503906 108.46493530273438 C 406.4906921386719 108.88043212890625 404.5062255859375 109.675537109375 402.7977600097656 110.85027313232422 C 401.0884704589844 112.03162384033203 399.6915588378906 113.5970458984375 398.6070251464844 115.5465316772461 C 397.5216979980469 117.50263977050781 396.810791015625 119.85711669921875 396.47430419921875 122.6099624633789 C 396.1281433105469 125.44221496582031 396.2557067871094 127.94283294677734 396.85699462890625 130.11180114746094 C 397.4582824707031 132.28077697753906 398.4701232910156 134.14060974121094 399.8924865722656 135.69129943847656 C 401.31488037109375 137.2419891357422 403.1246032714844 138.48069763183594 405.3217468261719 139.40744018554688 C 407.5254821777344 140.33499145507812 410.0401916503906 140.97145080566406 412.8658142089844 141.3168182373047 C 415.6980895996094 141.66299438476562 418.2106628417969 141.68466186523438 420.40362548828125 141.38182067871094 C 422.5965576171875 141.07896423339844 424.4682922363281 140.49171447753906 426.0188293457031 139.62005615234375 C 427.5693664550781 138.74839782714844 428.79046630859375 137.60476684570312 429.6821594238281 136.1891632080078 C 430.5738220214844 134.77354431152344 431.1344909667969 133.12606811523438 431.36419677734375 131.24671936035156 L 419.8796691894531 129.84300231933594 C 419.8020324707031 130.47828674316406 419.62664794921875 131.06130981445312 419.35357666015625 131.59210205078125 C 419.081298828125 132.11627197265625 418.6947021484375 132.55931091308594 418.1937561035156 132.92120361328125 C 417.68621826171875 133.2823028564453 417.0476989746094 133.53335571289062 416.2782287597656 133.67437744140625 C 415.51458740234375 133.82281494140625 414.6000671386719 133.83193969726562 413.5346374511719 133.70172119140625 C 411.28472900390625 133.4267120361328 409.7432861328125 132.63047790527344 408.9103088378906 131.31301879882812 C 408.0765075683594 130.00218200683594 407.7922668457031 128.26150512695312 408.05755615234375 126.09099578857422 L 431.64202880859375 128.9736328125 L 431.8907470703125 126.93878173828125 C 432.2369384765625 124.10652923583984 432.145751953125 121.61035919189453 431.61724853515625 119.45028686523438 C 431.0821533203125 117.28939819335938 430.13897705078125 115.4446792602539 428.78778076171875 113.91612243652344 C 427.4440002441406 112.38175201416016 425.7099609375 111.15564727783203 423.58563232421875 110.23780822753906 C 421.4678955078125 109.32077026367188 418.992919921875 108.68916320800781 416.16064453125 108.34298706054688 M 415.70391845703125 115.95378875732422 C 417.391357421875 116.16004180908203 418.6404724121094 116.79293060302734 419.45123291015625 117.85245513916016 C 420.2694396972656 118.90617370605469 420.5778503417969 120.25690460205078 420.37646484375 121.9046401977539 L 408.8025817871094 120.49000549316406 C 409.21331787109375 118.88800811767578 409.96661376953125 117.67040252685547 411.06243896484375 116.83719635009766 C 412.1582946777344 116.00399780273438 413.7054443359375 115.70952606201172 415.70391845703125 115.95378875732422 Z" transform="matrix(0.3928808867931366, -0.017397988587617874, 0.017397988587617874, 0.3928808867931366, -51.102622985839844, -14.365650177001953)" style="fill: rgb(255, 255, 255); white-space: pre; color: rgb(51, 51, 51); fill-opacity: 0.84;"/></svg>